<svg width="513" height="513" viewBox="0 0 513 513" fill="none" xmlns="http://www.w3.org/2000/svg">
<circle cx="256.5" cy="256.5" r="256.5" fill="white"/>
<path fill-rule="evenodd" clip-rule="evenodd" d="M160.5 83.63C126.436 88.538 103.118 94.687 97.221 100.318C86.686 110.377 85.08 153.577 93.451 201.736C96.8 221.001 103.913 239.426 109.784 244.044C116.471 249.305 128.029 250.035 164.687 247.513C206.287 244.65 226.416 239.985 233.888 231.474C240.052 224.454 240.597 205.843 234.853 198.541C232.262 195.247 228.339 195.229 217.645 198.463C201.207 203.433 186.004 206.163 162.5 208.364C152.458 209.305 148.296 209.368 147.78 208.588C147.154 207.642 143 191.218 143 189.687C143 189.377 145.137 188.86 147.75 188.538C172.123 185.54 184.97 182.54 188.827 178.946C192.227 175.779 193 172.822 193 162.991C193 155.035 192.748 153.82 190.578 151.306C188.229 148.585 187.874 148.504 178.828 148.621C173.698 148.688 162.608 149.521 154.185 150.473C145.761 151.424 138.672 152.005 138.43 151.763C138.188 151.522 137.88 145.739 137.745 138.912L137.5 126.5L144.5 125.233C155.229 123.29 184.939 122.548 195.5 123.959C213.766 126.399 218.239 126.441 221 124.198C223.292 122.336 223.495 121.517 223.441 114.334C223.359 103.415 220.083 92.92 215.733 89.634C209.482 84.913 203.137 83.733 182.5 83.454C172.05 83.313 162.15 83.392 160.5 83.63ZM374.998 85.308C374.722 85.599 366.622 86.793 356.998 87.962C308.511 93.851 292.145 96.653 288.858 99.628C286.143 102.086 285.634 107.023 287.39 113.878C289.618 122.573 292.495 127.687 296.252 129.63C302.808 133.021 317.999 132.486 344.907 127.917C351.181 126.852 356.516 126.182 356.763 126.429C357.496 127.163 342.945 154.624 335.53 166.5C326.205 181.436 316.111 194.791 306.385 205.059C301.922 209.772 297.679 214.724 296.957 216.064C293.928 221.688 297.004 238.979 301.808 243.326C307.592 248.561 324.964 250.651 349 249.005C373.989 247.293 390.179 244.189 404.978 238.274C415.658 234.006 420.587 230.484 423.076 225.343C425.064 221.236 425.227 219.769 424.685 210.874C423.971 199.155 421.559 192.543 417.422 190.97C414.203 189.746 413.427 189.949 400 195.519C389.551 199.854 372.379 205.293 370.801 204.767C370.346 204.615 371.928 201.343 374.318 197.496C387.066 176.969 401.656 147.121 407.58 129.45C411.489 117.789 412.833 107.053 411.057 101.672C408.543 94.056 394.907 86.366 382.053 85.315C378.449 85.02 375.274 85.017 374.998 85.308ZM222.067 278.874C219.479 283.71 203.415 292.939 185.133 300.093L174.766 304.15L172.133 301.634C168.108 297.788 161.148 295.047 155.345 295.022L150.189 295L152.685 303.75C156.629 317.58 156.941 333.875 153.577 350.337C147.758 378.808 135.249 407.194 120.335 425.774L117.707 429.047L126.604 425.926C139.079 421.548 148.333 416.475 153.642 411.101C159.246 405.429 165.56 392.727 170.712 376.762C172.795 370.306 174.804 365.019 175.175 365.012C175.547 365.006 179.329 370.156 183.579 376.458L191.308 387.917L187.003 393.497C180.818 401.512 168.089 413.174 158.885 419.255L150.948 424.5L155.664 425.305C162.887 426.538 180.328 424.46 186.406 421.642C189.208 420.344 194.535 416.481 198.244 413.057L204.989 406.833L207.685 410.167C212.43 416.034 220.283 423.104 224.373 425.19C229.797 427.958 237.57 427.317 245.371 423.46C251.169 420.593 259.97 413.655 259 412.715C258.725 412.449 254.248 410.104 249.05 407.505C236.816 401.387 227.911 395.949 221.942 390.952L217.154 386.943L225.977 369.722C236.029 350.098 239.524 341.224 238.619 337.619C238.279 336.263 236.899 333.844 235.552 332.244C232.746 328.909 222.243 323 219.122 323C217.968 323 213.306 324.523 208.762 326.386C198.78 330.476 180.223 336.578 179.674 335.951C179.456 335.703 179.003 331.113 178.666 325.75L178.054 316H191.297C206.632 316 214.259 314.313 227.982 307.885C237.815 303.279 241 300.648 241 297.129C241 293.736 236.847 287.957 230.623 282.692C223.69 276.827 223.264 276.637 222.067 278.874ZM330.532 284.758C325.224 295.068 317.406 305.239 303.981 319.298L292.806 331L303.653 330.974C312.293 330.954 315.87 330.482 321.232 328.654L327.964 326.36L329.114 329.846C329.747 331.763 332.047 335.265 334.225 337.629L338.186 341.926L333.343 345.021C324.848 350.451 298.937 362.697 285.5 367.634C278.35 370.261 272.313 372.543 272.083 372.705C268.324 375.367 302.993 377.349 314.499 375.129C317.249 374.599 319.657 374.323 319.85 374.516C320.043 374.71 322.876 385.541 326.147 398.586C329.417 411.63 332.537 423.135 333.081 424.152C334.464 426.736 337.775 426.466 346.318 423.072C354.856 419.681 361.657 418.348 375.25 417.404C382.096 416.928 385 417.054 385 417.828C385 419.577 391.011 425.954 394.225 427.616C396.853 428.976 397.398 428.969 399.562 427.551C405.739 423.504 418.294 404.384 422.644 392.401C425.561 384.363 425.774 375.782 423.163 371.5C418.874 364.466 404.384 359.726 387 359.667C374.624 359.626 370.441 360.319 350.669 365.687C343.611 367.603 337.603 368.937 337.317 368.651C337.032 368.365 339.431 366.8 342.649 365.173C350.294 361.307 366.915 350.312 384.993 337.159C411.528 317.854 416.775 313.019 415.512 309.037C414.599 306.162 402.051 294.829 396.428 291.801L391.415 289.101L375.958 292.53C367.456 294.417 359.941 295.969 359.258 295.98C358.408 295.994 358.092 294.521 358.258 291.323C358.48 287.035 358.225 286.457 355.197 284.386C353.38 283.144 349.105 281.239 345.697 280.152C333.989 276.42 334.979 276.119 330.532 284.758ZM115.795 289.25C115.419 296.052 114.76 298.641 112.041 304C107.605 312.745 98.212 324.608 84.299 339.039C77.956 345.618 73.225 351 73.784 351C74.344 351 80.092 350.096 86.557 348.99C93.023 347.885 98.506 347.173 98.741 347.408C100.082 348.748 100.159 359.247 99.003 382.942C97.785 407.89 97.816 409.931 99.489 414.965C101.283 420.369 108.07 429 110.524 429C112.044 429 117.408 423.067 119.35 419.237C120.289 417.385 120.954 410.68 121.408 398.5C122.344 373.336 123.985 354.293 125.615 349.674C127.602 344.041 127.398 343.167 123.562 340.904L120.125 338.876L127.562 331.811C135.789 323.996 140.221 316.402 142.108 306.885C144.038 297.157 140.594 292.721 125.116 284.998C120.71 282.799 116.912 281 116.677 281C116.443 281 116.046 284.712 115.795 289.25ZM368 313.046C355.163 315.301 348.993 315.45 346.441 313.568C344.696 312.281 344.222 312.401 341.75 314.755C340.238 316.196 339 317.857 339 318.446C339 319.036 341.949 320.575 345.553 321.868C349.157 323.161 353.417 325.321 355.019 326.669L357.932 329.121L364.216 324.879C375.961 316.953 381.056 312.899 380.468 311.948C380.146 311.427 379.571 311.045 379.191 311.101C378.811 311.156 373.775 312.031 368 313.046ZM205.5 348.163C202.2 349.242 196.859 350.435 193.63 350.813L187.76 351.5L195.028 360.262C201.526 368.096 202.425 368.837 203.517 367.262C205.094 364.99 214 347.461 214 346.631C214 345.667 212.058 346.017 205.5 348.163ZM366.856 383.977C363.202 384.437 357.689 385.338 354.606 385.978C348.231 387.301 348.16 387.485 350.163 397.458L351.326 403.25L360.913 402.496C366.186 402.081 374.524 401.462 379.442 401.121L388.384 400.5L390.886 392.778C392.263 388.53 393.089 384.756 392.723 384.39C391.669 383.335 374.163 383.056 366.856 383.977Z" fill="#050405"/>
</svg>
